<svg viewBox="0 0 176 41" fill="none" xmlns="http://www.w3.org/2000/svg">
<g clip-path="url(#clip0_311_1169)">
<path d="M42.1003 10.52V30.02H51.9703V32H39.9403V10.52H42.1003ZM56.9899 32H54.7999L62.6899 10.52H65.3599L73.3399 32H71.0899L68.9899 26.3H59.0899L56.9899 32ZM63.7399 13.55L59.7499 24.41H68.2999L64.2799 13.55C64.1899 13.25 64.0399 12.89 64.0099 12.68C63.9799 12.86 63.8599 13.25 63.7399 13.55ZM79.6859 32H77.5259V10.52H79.7159L91.5359 28.4V10.52H93.6659V32H91.5359L79.6859 14.12V32ZM97.8626 12.5V10.52H113.253V12.5H106.623V32H104.463V12.5H97.8626ZM130.296 32H117.426V10.52H130.266V12.5H119.586V20.24H129.276V22.19H119.586V30.02H130.296V32ZM138.042 32H135.882V10.52H143.892C148.242 10.52 150.882 12.92 150.882 16.73C150.882 19.82 149.262 21.98 146.502 22.73L151.092 32H148.692L144.312 23.09H138.042V32ZM138.042 12.47V21.14H143.952C146.922 21.14 148.662 19.52 148.662 16.79C148.662 14 146.832 12.47 143.892 12.47H138.042ZM158.431 32H156.271V10.52H158.461L170.281 28.4V10.52H172.411V32H170.281L158.431 14.12V32Z" fill="rgb(227, 227, 227)"/>
<path d="M9.71013 11.3367L23.4037 14.8119C23.7188 14.8929 23.9439 15.172 23.9439 15.4871L23.9619 28.8747C23.9619 29.1627 24.3039 29.3248 24.538 29.1537L26.7438 27.5602C26.9238 27.4252 27.0318 27.2181 27.0318 27.002L27.0228 20.1147C27.0138 15.7572 23.9799 11.9579 19.6134 10.8506L12.393 9.02294C12.1769 8.96892 11.9518 9.01394 11.7808 9.13998L9.58404 10.7335C9.35005 10.9046 9.42205 11.2647 9.71013 11.3367Z" fill="rgb(227, 227, 227)"/>
<path d="M20.9546 22.2659C20.9546 19.2319 18.83 16.585 15.7959 15.8107L9.16077 14.1271L6.33382 13.4069C6.11774 13.3529 5.89267 13.3979 5.72162 13.5239L2.93069 15.5496L0.319833 17.4403C0.139773 17.5753 0.0317374 17.7824 0.0317374 17.9984L0.0407407 24.8858C0.0407409 29.2432 3.08375 33.0515 7.44118 34.1499L14.6616 35.9775C14.8776 36.0315 15.1027 35.9865 15.2737 35.8605L18.0647 33.8348L20.6755 31.9442C20.8556 31.8091 20.9637 31.602 20.9637 31.386L20.9637 28.64L20.9546 22.2659ZM17.8846 19.8801L17.8936 27.3076C17.8936 27.5957 17.6145 27.8028 17.3264 27.7307L9.70995 25.8041C9.39486 25.7231 9.16977 25.444 9.16977 25.1289L9.16077 17.7013C9.16077 17.4132 9.43986 17.2062 9.72795 17.2782L17.3444 19.2049C17.6595 19.2859 17.8846 19.565 17.8846 19.8801ZM17.3354 33.6547L3.65093 30.1886C3.33583 30.1075 3.11075 29.8284 3.11075 29.5133L3.09274 16.1528C3.09274 15.8647 3.37184 15.6577 3.65993 15.7297L5.6856 16.2429C5.91968 16.3059 6.09074 16.5129 6.09074 16.747L6.09074 20.4833C6.09974 24.8318 9.13377 28.64 13.5002 29.7474L17.4975 30.7648C17.7316 30.8278 17.9026 31.0348 17.9026 31.2689L17.9026 33.2316C17.9026 33.5197 17.6235 33.7268 17.3354 33.6547Z" fill="rgb(227, 227, 227)"/>
</g>
<defs>
<clipPath id="clip0_311_1169">
<rect width="175.33" height="41" fill="white"/>
</clipPath>
</defs>
</svg>